<?xml version="1.0" encoding="utf-8"?>
<svg width="100px" height="100px" viewBox="0 0 1024 1024" class="icon" version="1.1" xmlns="http://www.w3.org/2000/svg">
  <path d="M 128 722.333 C 128 829.079 448 895.795 704 842.422 C 822.81 817.652 896 771.874 896 722.333 C 896 615.588 576 548.872 320 602.244 C 201.19 627.015 128 672.793 128 722.333 Z" fill="#90CAF9"/>
  <path d="M 512 66 C 382.4 66 277.333 169.637 277.333 297.467 C 277.333 425.317 512 727.333 512 727.333 C 512 727.333 746.667 425.317 746.667 297.467 C 746.667 169.637 641.6 66 512 66 Z M 512 407.333 C 429.888 407.342 378.559 318.458 419.608 247.343 C 438.663 214.331 473.884 193.996 512 194 C 594.112 194.008 645.424 282.902 604.36 354.009 C 585.307 387.004 550.101 407.33 512 407.333 Z" fill="#FF3D00"/>
  <text style="fill: rgb(51, 51, 51); font-family: Futura; font-size: 45.1px; white-space: pre;" transform="matrix(2.436856, 0, 0, 3.133194, -877.100037, -1645.091675)" x="373.566" y="836.34">lowcoder-comp-geo</text>
</svg>